<svg width="17" height="123" viewBox="0 0 17 123" fill="none" xmlns="http://www.w3.org/2000/svg">
<path d="M14.6614 5H9C6.79086 5 5 6.79086 5 9V114C5 116.209 6.79086 118 9 118H15" stroke="#FB6D8A" stroke-width="1.86916"/>
<path d="M15.8317 4.24574C16.3091 4.51187 16.3091 5.19869 15.8317 5.46483L10.7308 8.30828C10.2656 8.56758 9.69316 8.23128 9.69316 7.69874L9.69316 2.01182C9.69316 1.47928 10.2656 1.14298 10.7308 1.40228L15.8317 4.24574Z" fill="#FB6D8A"/>
<path d="M15.8317 117.246C16.3091 117.512 16.3091 118.199 15.8317 118.465L10.7308 121.308C10.2656 121.568 9.69316 121.231 9.69316 120.699L9.69316 115.012C9.69316 114.479 10.2656 114.143 10.7308 114.402L15.8317 117.246Z" fill="#FB6D8A"/>
<path d="M4.88794 63.752H1.88794" stroke="#FB6D8A" stroke-width="1.86916" stroke-linecap="round"/>
</svg>
