<svg width="210" height="18" viewBox="0 0 210 18" fill="none" xmlns="http://www.w3.org/2000/svg">
<path d="M5.33019 16.6473C5.06406 17.1247 4.37724 17.1247 4.1111 16.6473L1.26765 11.5464C1.00835 11.0812 1.34464 10.5087 1.87719 10.5087L7.5641 10.5087C8.09665 10.5087 8.43294 11.0812 8.17365 11.5464L5.33019 16.6473Z" fill="#FB6D8A"/>
<path d="M205.554 16.6473C205.288 17.1247 204.601 17.1247 204.335 16.6473L201.492 11.5464C201.233 11.0812 201.569 10.5087 202.101 10.5087L207.788 10.5087C208.321 10.5087 208.657 11.0812 208.398 11.5464L205.554 16.6473Z" fill="#FB6D8A"/>
<path d="M105.154 16.6473C104.888 17.1247 104.201 17.1247 103.935 16.6473L101.092 11.5464C100.833 11.0812 101.169 10.5087 101.701 10.5087L107.388 10.5087C107.921 10.5087 108.257 11.0812 107.998 11.5464L105.154 16.6473Z" fill="#FB6D8A"/>
<path d="M105 1L105 10" stroke="#FB6D8A" stroke-width="1.86916" stroke-linecap="round" stroke-dasharray="4 6"/>
<path d="M100 5H9C6.79086 5 5 6.79086 5 9V12" stroke="#F76D89" stroke-width="2" stroke-linecap="round" stroke-dasharray="4 6"/>
<path d="M110 5H201C203.209 5 205 6.79086 205 9V12" stroke="#F76D89" stroke-width="2" stroke-linecap="round" stroke-dasharray="4 6"/>
</svg>
